<mxfile host="app.diagrams.net" modified="2023-01-31T04:01:42.583Z" agent="5.0 (Windows NT 10.0; Win64; x64) AppleWebKit/537.36 (KHTML, like Gecko) Chrome/109.0.0.0 Safari/537.36 Edg/109.0.1518.70" etag="GVswc6_vvNUROXjhU_-c" version="20.8.13" type="github">
  <diagram id="C5RBs43oDa-KdzZeNtuy" name="Page-1">
    <mxGraphModel dx="1050" dy="573" grid="1" gridSize="10" guides="1" tooltips="1" connect="1" arrows="1" fold="1" page="1" pageScale="1" pageWidth="827" pageHeight="1169" math="0" shadow="0">
      <root>
        <mxCell id="WIyWlLk6GJQsqaUBKTNV-0" />
        <mxCell id="WIyWlLk6GJQsqaUBKTNV-1" parent="WIyWlLk6GJQsqaUBKTNV-0" />
        <mxCell id="WIyWlLk6GJQsqaUBKTNV-2" value="" style="rounded=0;html=1;jettySize=auto;orthogonalLoop=1;fontSize=11;endArrow=block;endFill=0;endSize=8;strokeWidth=1;shadow=0;labelBackgroundColor=none;edgeStyle=orthogonalEdgeStyle;" parent="WIyWlLk6GJQsqaUBKTNV-1" edge="1">
          <mxGeometry relative="1" as="geometry">
            <mxPoint x="220" y="120" as="sourcePoint" />
            <mxPoint x="220" y="170" as="targetPoint" />
          </mxGeometry>
        </mxCell>
        <mxCell id="c0Q5lg3F2ZLxCczuDSrK-0" value="Start" style="ellipse;whiteSpace=wrap;html=1;" vertex="1" parent="WIyWlLk6GJQsqaUBKTNV-1">
          <mxGeometry x="160" y="80" width="120" height="40" as="geometry" />
        </mxCell>
        <mxCell id="c0Q5lg3F2ZLxCczuDSrK-3" value="" style="edgeStyle=orthogonalEdgeStyle;rounded=0;orthogonalLoop=1;jettySize=auto;html=1;" edge="1" parent="WIyWlLk6GJQsqaUBKTNV-1" source="c0Q5lg3F2ZLxCczuDSrK-1" target="c0Q5lg3F2ZLxCczuDSrK-2">
          <mxGeometry relative="1" as="geometry" />
        </mxCell>
        <mxCell id="c0Q5lg3F2ZLxCczuDSrK-1" value="Program menghitung Suhu" style="rounded=0;whiteSpace=wrap;html=1;" vertex="1" parent="WIyWlLk6GJQsqaUBKTNV-1">
          <mxGeometry x="160" y="170" width="120" height="60" as="geometry" />
        </mxCell>
        <mxCell id="c0Q5lg3F2ZLxCczuDSrK-5" value="" style="edgeStyle=orthogonalEdgeStyle;rounded=0;orthogonalLoop=1;jettySize=auto;html=1;" edge="1" parent="WIyWlLk6GJQsqaUBKTNV-1" source="c0Q5lg3F2ZLxCczuDSrK-2" target="c0Q5lg3F2ZLxCczuDSrK-4">
          <mxGeometry relative="1" as="geometry" />
        </mxCell>
        <mxCell id="c0Q5lg3F2ZLxCczuDSrK-2" value="1. Celcius ke Farenheit &quot; +&quot; \n&quot; + &quot; 2. Farenheit ke Celcius&quot; + &quot;\n&quot; + &quot; 3. Kelvin ke Celcius&quot; + &quot;\n&quot; + &quot; 4. Kelvin ke Farenheit &quot; +&amp;nbsp; &quot;\n&quot; + &quot; 5. Selesai" style="rounded=0;whiteSpace=wrap;html=1;" vertex="1" parent="WIyWlLk6GJQsqaUBKTNV-1">
          <mxGeometry x="125" y="270" width="190" height="100" as="geometry" />
        </mxCell>
        <mxCell id="c0Q5lg3F2ZLxCczuDSrK-7" value="" style="edgeStyle=orthogonalEdgeStyle;rounded=0;orthogonalLoop=1;jettySize=auto;html=1;" edge="1" parent="WIyWlLk6GJQsqaUBKTNV-1" source="c0Q5lg3F2ZLxCczuDSrK-4" target="c0Q5lg3F2ZLxCczuDSrK-6">
          <mxGeometry relative="1" as="geometry" />
        </mxCell>
        <mxCell id="c0Q5lg3F2ZLxCczuDSrK-4" value="Masukkan Pilihan anda" style="shape=parallelogram;perimeter=parallelogramPerimeter;whiteSpace=wrap;html=1;fixedSize=1;rounded=0;" vertex="1" parent="WIyWlLk6GJQsqaUBKTNV-1">
          <mxGeometry x="160" y="410" width="120" height="60" as="geometry" />
        </mxCell>
        <mxCell id="c0Q5lg3F2ZLxCczuDSrK-10" style="edgeStyle=orthogonalEdgeStyle;rounded=0;orthogonalLoop=1;jettySize=auto;html=1;exitX=1;exitY=0.5;exitDx=0;exitDy=0;entryX=0.5;entryY=0;entryDx=0;entryDy=0;entryPerimeter=0;" edge="1" parent="WIyWlLk6GJQsqaUBKTNV-1" source="c0Q5lg3F2ZLxCczuDSrK-6" target="c0Q5lg3F2ZLxCczuDSrK-18">
          <mxGeometry relative="1" as="geometry">
            <mxPoint x="320" y="620" as="targetPoint" />
            <Array as="points">
              <mxPoint x="390" y="560" />
            </Array>
          </mxGeometry>
        </mxCell>
        <mxCell id="c0Q5lg3F2ZLxCczuDSrK-16" style="edgeStyle=orthogonalEdgeStyle;rounded=0;orthogonalLoop=1;jettySize=auto;html=1;exitX=0;exitY=0.5;exitDx=0;exitDy=0;entryX=0.5;entryY=0;entryDx=0;entryDy=0;" edge="1" parent="WIyWlLk6GJQsqaUBKTNV-1" source="c0Q5lg3F2ZLxCczuDSrK-6" target="c0Q5lg3F2ZLxCczuDSrK-15">
          <mxGeometry relative="1" as="geometry" />
        </mxCell>
        <mxCell id="c0Q5lg3F2ZLxCczuDSrK-6" value="case 1" style="rhombus;whiteSpace=wrap;html=1;rounded=0;" vertex="1" parent="WIyWlLk6GJQsqaUBKTNV-1">
          <mxGeometry x="180" y="520" width="80" height="80" as="geometry" />
        </mxCell>
        <mxCell id="c0Q5lg3F2ZLxCczuDSrK-14" value="" style="edgeStyle=orthogonalEdgeStyle;rounded=0;orthogonalLoop=1;jettySize=auto;html=1;" edge="1" parent="WIyWlLk6GJQsqaUBKTNV-1" source="c0Q5lg3F2ZLxCczuDSrK-11" target="c0Q5lg3F2ZLxCczuDSrK-13">
          <mxGeometry relative="1" as="geometry" />
        </mxCell>
        <mxCell id="c0Q5lg3F2ZLxCczuDSrK-11" value="&amp;nbsp;double fahrenheit = (celsius * 9/5) + 32;" style="whiteSpace=wrap;html=1;rounded=0;" vertex="1" parent="WIyWlLk6GJQsqaUBKTNV-1">
          <mxGeometry x="60" y="710" width="120" height="60" as="geometry" />
        </mxCell>
        <mxCell id="c0Q5lg3F2ZLxCczuDSrK-13" value="System.out.print(&quot; Suhu dalam Fahrenheit: &quot; + fahrenheit)" style="whiteSpace=wrap;html=1;rounded=0;" vertex="1" parent="WIyWlLk6GJQsqaUBKTNV-1">
          <mxGeometry x="60" y="810" width="120" height="60" as="geometry" />
        </mxCell>
        <mxCell id="c0Q5lg3F2ZLxCczuDSrK-17" style="edgeStyle=orthogonalEdgeStyle;rounded=0;orthogonalLoop=1;jettySize=auto;html=1;exitX=0.5;exitY=1;exitDx=0;exitDy=0;entryX=0.5;entryY=0;entryDx=0;entryDy=0;" edge="1" parent="WIyWlLk6GJQsqaUBKTNV-1" source="c0Q5lg3F2ZLxCczuDSrK-15" target="c0Q5lg3F2ZLxCczuDSrK-11">
          <mxGeometry relative="1" as="geometry" />
        </mxCell>
        <mxCell id="c0Q5lg3F2ZLxCczuDSrK-15" value="Masukkan suhu dalam celcius" style="shape=parallelogram;perimeter=parallelogramPerimeter;whiteSpace=wrap;html=1;fixedSize=1;rounded=0;" vertex="1" parent="WIyWlLk6GJQsqaUBKTNV-1">
          <mxGeometry x="60" y="600" width="120" height="60" as="geometry" />
        </mxCell>
        <mxCell id="c0Q5lg3F2ZLxCczuDSrK-20" value="" style="edgeStyle=orthogonalEdgeStyle;rounded=0;orthogonalLoop=1;jettySize=auto;html=1;" edge="1" parent="WIyWlLk6GJQsqaUBKTNV-1" source="c0Q5lg3F2ZLxCczuDSrK-18" target="c0Q5lg3F2ZLxCczuDSrK-19">
          <mxGeometry relative="1" as="geometry">
            <Array as="points">
              <mxPoint x="310" y="670" />
            </Array>
          </mxGeometry>
        </mxCell>
        <mxCell id="c0Q5lg3F2ZLxCczuDSrK-26" style="edgeStyle=orthogonalEdgeStyle;rounded=0;orthogonalLoop=1;jettySize=auto;html=1;exitX=1;exitY=0.5;exitDx=0;exitDy=0;exitPerimeter=0;" edge="1" parent="WIyWlLk6GJQsqaUBKTNV-1" source="c0Q5lg3F2ZLxCczuDSrK-18" target="c0Q5lg3F2ZLxCczuDSrK-25">
          <mxGeometry relative="1" as="geometry" />
        </mxCell>
        <mxCell id="c0Q5lg3F2ZLxCczuDSrK-18" value="case 2" style="strokeWidth=2;html=1;shape=mxgraph.flowchart.decision;whiteSpace=wrap;" vertex="1" parent="WIyWlLk6GJQsqaUBKTNV-1">
          <mxGeometry x="340" y="620" width="100" height="100" as="geometry" />
        </mxCell>
        <mxCell id="c0Q5lg3F2ZLxCczuDSrK-22" value="" style="edgeStyle=orthogonalEdgeStyle;rounded=0;orthogonalLoop=1;jettySize=auto;html=1;" edge="1" parent="WIyWlLk6GJQsqaUBKTNV-1" source="c0Q5lg3F2ZLxCczuDSrK-19" target="c0Q5lg3F2ZLxCczuDSrK-21">
          <mxGeometry relative="1" as="geometry" />
        </mxCell>
        <mxCell id="c0Q5lg3F2ZLxCczuDSrK-19" value="&amp;nbsp;Masukkan suhu dalam Fahrenheit:&amp;nbsp;" style="shape=parallelogram;perimeter=parallelogramPerimeter;whiteSpace=wrap;html=1;fixedSize=1;strokeWidth=2;" vertex="1" parent="WIyWlLk6GJQsqaUBKTNV-1">
          <mxGeometry x="250" y="740" width="120" height="60" as="geometry" />
        </mxCell>
        <mxCell id="c0Q5lg3F2ZLxCczuDSrK-24" value="" style="edgeStyle=orthogonalEdgeStyle;rounded=0;orthogonalLoop=1;jettySize=auto;html=1;" edge="1" parent="WIyWlLk6GJQsqaUBKTNV-1" source="c0Q5lg3F2ZLxCczuDSrK-21" target="c0Q5lg3F2ZLxCczuDSrK-23">
          <mxGeometry relative="1" as="geometry" />
        </mxCell>
        <mxCell id="c0Q5lg3F2ZLxCczuDSrK-21" value="double celsius1 = (fahrenheit1 - 32) * 5/9;" style="whiteSpace=wrap;html=1;strokeWidth=2;" vertex="1" parent="WIyWlLk6GJQsqaUBKTNV-1">
          <mxGeometry x="250" y="840" width="120" height="60" as="geometry" />
        </mxCell>
        <mxCell id="c0Q5lg3F2ZLxCczuDSrK-23" value="&amp;nbsp;System.out.print(&quot; Suhu dalam Celsius: &quot; + celsius1);" style="whiteSpace=wrap;html=1;strokeWidth=2;" vertex="1" parent="WIyWlLk6GJQsqaUBKTNV-1">
          <mxGeometry x="250" y="940" width="120" height="60" as="geometry" />
        </mxCell>
        <mxCell id="c0Q5lg3F2ZLxCczuDSrK-28" value="" style="edgeStyle=orthogonalEdgeStyle;rounded=0;orthogonalLoop=1;jettySize=auto;html=1;" edge="1" parent="WIyWlLk6GJQsqaUBKTNV-1" source="c0Q5lg3F2ZLxCczuDSrK-25" target="c0Q5lg3F2ZLxCczuDSrK-27">
          <mxGeometry relative="1" as="geometry">
            <Array as="points">
              <mxPoint x="470" y="780" />
            </Array>
          </mxGeometry>
        </mxCell>
        <mxCell id="c0Q5lg3F2ZLxCczuDSrK-34" value="" style="edgeStyle=orthogonalEdgeStyle;rounded=0;orthogonalLoop=1;jettySize=auto;html=1;" edge="1" parent="WIyWlLk6GJQsqaUBKTNV-1" source="c0Q5lg3F2ZLxCczuDSrK-25" target="c0Q5lg3F2ZLxCczuDSrK-33">
          <mxGeometry relative="1" as="geometry">
            <Array as="points">
              <mxPoint x="780" y="780" />
            </Array>
          </mxGeometry>
        </mxCell>
        <mxCell id="c0Q5lg3F2ZLxCczuDSrK-25" value="case 3" style="strokeWidth=2;html=1;shape=mxgraph.flowchart.decision;whiteSpace=wrap;" vertex="1" parent="WIyWlLk6GJQsqaUBKTNV-1">
          <mxGeometry x="520" y="730" width="100" height="100" as="geometry" />
        </mxCell>
        <mxCell id="c0Q5lg3F2ZLxCczuDSrK-30" value="" style="edgeStyle=orthogonalEdgeStyle;rounded=0;orthogonalLoop=1;jettySize=auto;html=1;" edge="1" parent="WIyWlLk6GJQsqaUBKTNV-1" source="c0Q5lg3F2ZLxCczuDSrK-27" target="c0Q5lg3F2ZLxCczuDSrK-29">
          <mxGeometry relative="1" as="geometry" />
        </mxCell>
        <mxCell id="c0Q5lg3F2ZLxCczuDSrK-27" value="Masukkan suhu dalam Kelvin:" style="shape=parallelogram;perimeter=parallelogramPerimeter;whiteSpace=wrap;html=1;fixedSize=1;strokeWidth=2;" vertex="1" parent="WIyWlLk6GJQsqaUBKTNV-1">
          <mxGeometry x="414" y="850" width="120" height="60" as="geometry" />
        </mxCell>
        <mxCell id="c0Q5lg3F2ZLxCczuDSrK-32" value="" style="edgeStyle=orthogonalEdgeStyle;rounded=0;orthogonalLoop=1;jettySize=auto;html=1;" edge="1" parent="WIyWlLk6GJQsqaUBKTNV-1" source="c0Q5lg3F2ZLxCczuDSrK-29" target="c0Q5lg3F2ZLxCczuDSrK-31">
          <mxGeometry relative="1" as="geometry" />
        </mxCell>
        <mxCell id="c0Q5lg3F2ZLxCczuDSrK-29" value="double celsius2 = kelvin - 273.15;" style="whiteSpace=wrap;html=1;strokeWidth=2;" vertex="1" parent="WIyWlLk6GJQsqaUBKTNV-1">
          <mxGeometry x="414" y="950" width="120" height="60" as="geometry" />
        </mxCell>
        <mxCell id="c0Q5lg3F2ZLxCczuDSrK-31" value="System.out.print(&quot; Suhu dalam Celsius: &quot; + celsius2)" style="whiteSpace=wrap;html=1;strokeWidth=2;" vertex="1" parent="WIyWlLk6GJQsqaUBKTNV-1">
          <mxGeometry x="414" y="1050" width="120" height="60" as="geometry" />
        </mxCell>
        <mxCell id="c0Q5lg3F2ZLxCczuDSrK-36" style="edgeStyle=orthogonalEdgeStyle;rounded=0;orthogonalLoop=1;jettySize=auto;html=1;exitX=0;exitY=0.5;exitDx=0;exitDy=0;exitPerimeter=0;entryX=0.5;entryY=0;entryDx=0;entryDy=0;" edge="1" parent="WIyWlLk6GJQsqaUBKTNV-1" source="c0Q5lg3F2ZLxCczuDSrK-33" target="c0Q5lg3F2ZLxCczuDSrK-35">
          <mxGeometry relative="1" as="geometry" />
        </mxCell>
        <mxCell id="c0Q5lg3F2ZLxCczuDSrK-44" value="" style="edgeStyle=orthogonalEdgeStyle;rounded=0;orthogonalLoop=1;jettySize=auto;html=1;" edge="1" parent="WIyWlLk6GJQsqaUBKTNV-1" source="c0Q5lg3F2ZLxCczuDSrK-33" target="c0Q5lg3F2ZLxCczuDSrK-43">
          <mxGeometry relative="1" as="geometry" />
        </mxCell>
        <mxCell id="c0Q5lg3F2ZLxCczuDSrK-33" value="case 4" style="strokeWidth=2;html=1;shape=mxgraph.flowchart.decision;whiteSpace=wrap;" vertex="1" parent="WIyWlLk6GJQsqaUBKTNV-1">
          <mxGeometry x="730" y="860" width="100" height="100" as="geometry" />
        </mxCell>
        <mxCell id="c0Q5lg3F2ZLxCczuDSrK-38" value="" style="edgeStyle=orthogonalEdgeStyle;rounded=0;orthogonalLoop=1;jettySize=auto;html=1;" edge="1" parent="WIyWlLk6GJQsqaUBKTNV-1" source="c0Q5lg3F2ZLxCczuDSrK-35" target="c0Q5lg3F2ZLxCczuDSrK-37">
          <mxGeometry relative="1" as="geometry" />
        </mxCell>
        <mxCell id="c0Q5lg3F2ZLxCczuDSrK-35" value="Masukkan suhu dalam Kelvin:&amp;nbsp;" style="shape=parallelogram;perimeter=parallelogramPerimeter;whiteSpace=wrap;html=1;fixedSize=1;strokeWidth=2;" vertex="1" parent="WIyWlLk6GJQsqaUBKTNV-1">
          <mxGeometry x="620" y="990" width="120" height="60" as="geometry" />
        </mxCell>
        <mxCell id="c0Q5lg3F2ZLxCczuDSrK-40" value="" style="edgeStyle=orthogonalEdgeStyle;rounded=0;orthogonalLoop=1;jettySize=auto;html=1;" edge="1" parent="WIyWlLk6GJQsqaUBKTNV-1" source="c0Q5lg3F2ZLxCczuDSrK-37" target="c0Q5lg3F2ZLxCczuDSrK-39">
          <mxGeometry relative="1" as="geometry" />
        </mxCell>
        <mxCell id="c0Q5lg3F2ZLxCczuDSrK-37" value="double celsius3 = kelvin1 - 273.15;" style="whiteSpace=wrap;html=1;strokeWidth=2;" vertex="1" parent="WIyWlLk6GJQsqaUBKTNV-1">
          <mxGeometry x="620" y="1090" width="120" height="60" as="geometry" />
        </mxCell>
        <mxCell id="c0Q5lg3F2ZLxCczuDSrK-42" value="" style="edgeStyle=orthogonalEdgeStyle;rounded=0;orthogonalLoop=1;jettySize=auto;html=1;" edge="1" parent="WIyWlLk6GJQsqaUBKTNV-1" source="c0Q5lg3F2ZLxCczuDSrK-39" target="c0Q5lg3F2ZLxCczuDSrK-41">
          <mxGeometry relative="1" as="geometry" />
        </mxCell>
        <mxCell id="c0Q5lg3F2ZLxCczuDSrK-39" value="double fahrenheit3 = (celsius3 * 9/5) + 32;" style="whiteSpace=wrap;html=1;strokeWidth=2;" vertex="1" parent="WIyWlLk6GJQsqaUBKTNV-1">
          <mxGeometry x="620" y="1190" width="120" height="60" as="geometry" />
        </mxCell>
        <mxCell id="c0Q5lg3F2ZLxCczuDSrK-41" value="System.out.print(&quot; Suhu dalam Fahrenheit: &quot; + fahrenheit3);" style="whiteSpace=wrap;html=1;strokeWidth=2;" vertex="1" parent="WIyWlLk6GJQsqaUBKTNV-1">
          <mxGeometry x="620" y="1300" width="120" height="60" as="geometry" />
        </mxCell>
        <mxCell id="c0Q5lg3F2ZLxCczuDSrK-46" style="edgeStyle=orthogonalEdgeStyle;rounded=0;orthogonalLoop=1;jettySize=auto;html=1;exitX=0.5;exitY=1;exitDx=0;exitDy=0;exitPerimeter=0;" edge="1" parent="WIyWlLk6GJQsqaUBKTNV-1" source="c0Q5lg3F2ZLxCczuDSrK-43">
          <mxGeometry relative="1" as="geometry">
            <mxPoint x="970" y="1492" as="targetPoint" />
          </mxGeometry>
        </mxCell>
        <mxCell id="c0Q5lg3F2ZLxCczuDSrK-43" value="case 5" style="strokeWidth=2;html=1;shape=mxgraph.flowchart.decision;whiteSpace=wrap;" vertex="1" parent="WIyWlLk6GJQsqaUBKTNV-1">
          <mxGeometry x="920" y="980" width="100" height="100" as="geometry" />
        </mxCell>
        <mxCell id="c0Q5lg3F2ZLxCczuDSrK-47" value="end" style="strokeWidth=2;html=1;shape=mxgraph.flowchart.terminator;whiteSpace=wrap;" vertex="1" parent="WIyWlLk6GJQsqaUBKTNV-1">
          <mxGeometry x="920" y="1490" width="100" height="60" as="geometry" />
        </mxCell>
        <mxCell id="c0Q5lg3F2ZLxCczuDSrK-49" value="no" style="text;html=1;strokeColor=none;fillColor=none;align=center;verticalAlign=middle;whiteSpace=wrap;rounded=0;" vertex="1" parent="WIyWlLk6GJQsqaUBKTNV-1">
          <mxGeometry x="290" y="530" width="60" height="30" as="geometry" />
        </mxCell>
        <mxCell id="c0Q5lg3F2ZLxCczuDSrK-50" value="yes" style="text;html=1;strokeColor=none;fillColor=none;align=center;verticalAlign=middle;whiteSpace=wrap;rounded=0;" vertex="1" parent="WIyWlLk6GJQsqaUBKTNV-1">
          <mxGeometry x="125" y="530" width="60" height="30" as="geometry" />
        </mxCell>
        <mxCell id="c0Q5lg3F2ZLxCczuDSrK-54" value="no" style="text;html=1;strokeColor=none;fillColor=none;align=center;verticalAlign=middle;whiteSpace=wrap;rounded=0;" vertex="1" parent="WIyWlLk6GJQsqaUBKTNV-1">
          <mxGeometry x="820" y="880" width="60" height="30" as="geometry" />
        </mxCell>
        <mxCell id="c0Q5lg3F2ZLxCczuDSrK-55" value="yes" style="text;html=1;strokeColor=none;fillColor=none;align=center;verticalAlign=middle;whiteSpace=wrap;rounded=0;" vertex="1" parent="WIyWlLk6GJQsqaUBKTNV-1">
          <mxGeometry x="680" y="880" width="60" height="30" as="geometry" />
        </mxCell>
        <mxCell id="c0Q5lg3F2ZLxCczuDSrK-56" value="no" style="text;html=1;strokeColor=none;fillColor=none;align=center;verticalAlign=middle;whiteSpace=wrap;rounded=0;" vertex="1" parent="WIyWlLk6GJQsqaUBKTNV-1">
          <mxGeometry x="610" y="755" width="60" height="30" as="geometry" />
        </mxCell>
        <mxCell id="c0Q5lg3F2ZLxCczuDSrK-57" value="yes" style="text;html=1;strokeColor=none;fillColor=none;align=center;verticalAlign=middle;whiteSpace=wrap;rounded=0;" vertex="1" parent="WIyWlLk6GJQsqaUBKTNV-1">
          <mxGeometry x="470" y="750" width="60" height="30" as="geometry" />
        </mxCell>
        <mxCell id="c0Q5lg3F2ZLxCczuDSrK-58" value="no" style="text;html=1;strokeColor=none;fillColor=none;align=center;verticalAlign=middle;whiteSpace=wrap;rounded=0;" vertex="1" parent="WIyWlLk6GJQsqaUBKTNV-1">
          <mxGeometry x="460" y="640" width="60" height="30" as="geometry" />
        </mxCell>
        <mxCell id="c0Q5lg3F2ZLxCczuDSrK-59" value="yes" style="text;html=1;strokeColor=none;fillColor=none;align=center;verticalAlign=middle;whiteSpace=wrap;rounded=0;" vertex="1" parent="WIyWlLk6GJQsqaUBKTNV-1">
          <mxGeometry x="300" y="640" width="60" height="30" as="geometry" />
        </mxCell>
      </root>
    </mxGraphModel>
  </diagram>
</mxfile>
